<?xml version="1.0" standalone="no"?>
<!DOCTYPE svg PUBLIC "-//W3C//DTD SVG 20010904//EN"
 "http://www.w3.org/TR/2001/REC-SVG-20010904/DTD/svg10.dtd">
<svg version="1.0" xmlns="http://www.w3.org/2000/svg"
 width="453.000000pt" height="392.000000pt" viewBox="0 0 453.000000 392.000000"
 preserveAspectRatio="xMidYMid meet">

<g transform="translate(0.000000,392.000000) scale(0.100000,-0.100000)"
fill="#000000" stroke="none">
<path d="M601 3073 c0 -12 -4 -30 -8 -40 -6 -14 -9 -10 -13 17 -5 32 -7 30
-18 -30 -26 -144 -34 -279 -29 -470 5 -165 28 -384 41 -398 3 -2 58 -16 123
-32 164 -39 289 -83 413 -144 127 -63 283 -163 275 -176 -3 -5 0 -7 8 -4 8 3
35 -15 63 -42 27 -25 41 -41 31 -34 -9 7 -21 10 -24 6 -4 -4 -1 -11 7 -16 8
-6 12 -10 8 -10 -6 0 29 -120 52 -175 25 -64 42 -108 65 -175 14 -41 30 -79
34 -85 5 -5 11 -30 15 -55 6 -43 6 -44 -9 -20 -8 14 -18 33 -21 43 -5 13 -17
17 -50 17 -24 0 -44 5 -44 10 0 11 -59 14 -84 4 -9 -3 -16 -12 -16 -20 0 -20
-12 -17 -39 11 -13 14 -27 25 -32 25 -5 0 -9 6 -9 13 0 6 -25 39 -55 72 -30
33 -55 63 -55 66 0 3 -12 19 -26 35 -14 16 -32 41 -40 57 -14 25 -24 31 -50
28 -6 -1 -18 6 -25 16 -13 15 -12 16 9 11 15 -4 22 -2 22 8 0 8 -4 14 -10 14
-5 0 -12 11 -16 25 -3 14 -10 25 -15 25 -5 0 -9 8 -9 18 0 15 -3 14 -18 -5
-15 -19 -28 -22 -107 -24 -55 -2 -99 2 -112 9 -31 17 -46 15 -41 -6 3 -12 0
-19 -9 -19 -7 0 -11 7 -8 16 2 9 0 23 -6 31 -10 13 -10 13 -6 -1 3 -9 -1 -16
-9 -16 -17 0 -17 3 -4 28 9 16 7 19 -9 19 -22 0 -35 27 -25 56 5 18 5 18 -6 0
-10 -15 -7 -30 15 -82 15 -35 31 -64 36 -64 5 0 16 -15 24 -32 14 -29 14 -31
0 -14 -8 11 -15 24 -15 30 0 5 -3 7 -6 3 -10 -9 78 -167 89 -160 6 3 7 1 4 -5
-7 -11 23 -72 36 -72 4 0 7 -6 7 -13 0 -16 42 -74 53 -75 5 0 12 -4 15 -8 4
-4 1 -4 -5 0 -19 11 -15 -6 7 -32 11 -14 24 -20 31 -16 8 4 9 3 5 -4 -8 -14
-2 -25 39 -77 40 -51 156 -185 160 -185 2 0 38 -5 80 -11 117 -16 277 -65 389
-118 94 -45 234 -125 246 -140 3 -4 29 -24 58 -45 28 -21 52 -42 52 -46 0 -14
-18 -21 -25 -10 -3 5 -12 10 -18 10 -14 -1 23 -24 38 -25 6 0 13 4 18 10 4 6
10 0 13 -13 5 -17 12 -22 25 -19 23 6 25 -6 4 -23 -8 -7 -15 -24 -15 -37 0
-22 3 -24 33 -19 l32 6 -29 -11 c-22 -9 -34 -9 -49 0 -29 19 -31 6 -2 -13 15
-10 36 -14 52 -11 28 5 28 5 4 -5 -17 -7 -34 -8 -54 0 -37 13 -46 13 -27 0 15
-10 115 -42 203 -65 l49 -13 -38 37 c-20 20 -64 70 -97 111 -33 41 -64 74 -69
72 -5 -1 -7 2 -4 7 3 5 -17 43 -44 85 -80 121 -165 278 -234 435 -67 155 -167
446 -186 546 -6 33 -22 111 -35 174 -35 167 -49 297 -48 471 1 187 4 256 10
219 3 -21 9 -26 26 -23 16 3 18 2 6 -3 -12 -6 -14 -14 -8 -28 6 -17 8 -17 8
-2 1 21 21 23 21 2 0 -8 5 -15 11 -15 5 0 7 5 4 10 -4 6 22 10 69 10 44 0 76
-4 76 -10 0 -14 47 -12 54 3 5 10 7 10 12 0 7 -16 26 -17 41 -2 8 8 3 23 -20
55 -51 71 -118 156 -172 218 -53 61 -190 186 -205 186 -15 0 -84 -188 -104
-285 -2 -13 -4 -10 -5 10 l-2 30 -11 -25 -11 -25 -6 30 c-6 28 -7 28 -13 8 -3
-13 -11 -23 -18 -23 -6 0 -8 4 -5 10 6 10 4 11 -125 34 -47 8 -110 20 -140 26
-30 6 -75 14 -100 18 -25 5 -51 11 -58 16 -6 4 -43 8 -81 9 l-69 1 -11 35 c-6
20 -20 86 -31 146 -27 145 -29 149 -45 135 -10 -9 -14 -6 -18 12 -4 22 -4 22
-6 1z m746 -505 c-3 -7 -5 -2 -5 12 0 14 2 19 5 13 2 -7 2 -19 0 -25z m491
-80 c14 -14 16 -38 2 -38 -5 0 -6 8 -3 17 5 12 2 15 -10 10 -11 -4 -17 -1 -17
8 0 18 12 19 28 3z m-130 -5 c-10 -2 -26 -2 -35 0 -10 3 -2 5 17 5 19 0 27 -2
18 -5z m-201 -791 c8 -5 9 -13 3 -22 -8 -13 -10 -13 -10 2 0 9 -6 19 -12 21
-7 3 -8 6 -3 6 6 0 15 -3 22 -7z m48 -33 c-9 -14 -34 2 -28 17 4 11 9 12 19 3
8 -6 11 -15 9 -20z m-30 -19 c3 -5 1 -10 -4 -10 -6 0 -11 5 -11 10 0 6 2 10 4
10 3 0 8 -4 11 -10z m53 -2 c-2 -7 3 -12 11 -13 8 0 16 -11 17 -25 3 -20 2
-22 -6 -9 -5 9 -20 15 -34 14 -24 -3 -28 8 -13 33 10 15 28 16 25 0z m-508
-14 c0 -8 -4 -12 -10 -9 -5 3 -10 10 -10 16 0 5 5 9 10 9 6 0 10 -7 10 -16z
m-110 -14 c0 -7 -14 -8 -37 -4 -52 9 -54 14 -5 14 23 0 42 -5 42 -10z m-120
-131 c0 -5 4 -7 10 -4 6 3 7 -1 4 -10 -4 -9 -7 -15 -8 -13 -1 2 -8 11 -15 21
-9 11 -10 17 -2 17 6 0 11 -5 11 -11z m757 -261 c-3 -8 -6 -5 -6 6 -1 11 2 17
5 13 3 -3 4 -12 1 -19z m-559 -53 c-3 -3 -9 2 -12 12 -6 14 -5 15 5 6 7 -7 10
-15 7 -18z m75 -70 c-3 -9 -8 -14 -10 -11 -3 3 -2 9 2 15 9 16 15 13 8 -4z
m1023 -597 c28 -30 17 -31 -18 -1 -12 11 -18 12 -24 2 -5 -8 -3 -10 6 -4 9 6
11 4 5 -4 -5 -9 -10 -10 -18 -2 -7 7 -6 15 3 26 7 8 13 15 14 15 1 0 15 -14
32 -32z m74 -91 c0 -5 -6 -5 -13 2 -8 6 -16 9 -18 6 -3 -2 -5 5 -5 15 0 18 2
18 18 3 10 -9 18 -20 18 -26z"/>
<path d="M1555 1620 c3 -5 11 -10 16 -10 6 0 7 5 4 10 -3 6 -11 10 -16 10 -6
0 -7 -4 -4 -10z"/>
<path d="M3997 3070 c-6 -25 -24 -26 -30 -2 -4 13 -5 11 -6 -5 0 -13 -5 -23
-11 -23 -5 0 -7 7 -4 15 4 8 2 15 -4 15 -5 0 -12 -24 -16 -52 -15 -111 -63
-313 -65 -272 -1 15 -69 8 -146 -15 -59 -18 -115 -29 -265 -51 -41 -7 -86 -14
-100 -17 -14 -4 -29 -5 -33 -4 -4 1 -18 -5 -30 -14 -28 -19 -35 -19 -40 3 -2
11 -7 6 -14 -18 -10 -31 -11 -32 -12 -9 -2 56 -85 289 -102 289 -17 0 -235
-208 -295 -281 -54 -67 -104 -140 -100 -147 3 -4 0 -14 -6 -22 -8 -12 -8 -11
-3 5 4 14 3 17 -5 9 -6 -6 -8 -18 -4 -27 4 -12 11 -14 31 -6 13 5 31 6 38 2 7
-5 70 -7 139 -5 l125 3 3 52 c2 36 6 15 12 -68 14 -190 -16 -488 -73 -725 -10
-41 -18 -84 -19 -95 -2 -58 -137 -422 -227 -610 -58 -122 -170 -320 -202 -357
-8 -9 -12 -22 -8 -28 3 -6 2 -9 -4 -8 -5 2 -32 -28 -60 -66 -27 -37 -74 -94
-104 -126 l-54 -57 96 28 c110 31 183 57 161 58 -8 0 -33 -6 -55 -14 -21 -8
-41 -12 -44 -10 -2 3 0 5 6 5 6 0 10 7 9 16 0 9 5 18 12 20 7 1 8 0 2 -3 -18
-8 -11 -26 8 -18 9 4 31 11 47 15 l30 8 -32 1 c-37 1 -49 14 -28 31 17 14 20
30 5 30 -5 0 -10 -6 -10 -14 0 -8 -7 -17 -16 -20 -12 -5 -14 -1 -9 15 5 15 4
19 -4 15 -6 -4 -11 -14 -11 -22 0 -8 -5 -12 -11 -9 -13 9 15 51 31 47 8 -2 10
3 7 13 -4 9 -1 15 8 15 8 0 15 5 15 10 0 6 6 5 14 -2 8 -7 12 -16 9 -21 -2 -4
0 -7 5 -7 6 0 13 7 16 16 3 8 2 13 -3 10 -5 -3 -12 2 -16 11 -3 10 -1 19 6 22
6 2 20 12 30 22 11 11 23 19 29 19 5 0 13 6 17 13 13 22 172 118 267 162 119
55 290 109 396 125 96 15 101 18 226 175 35 44 68 85 74 92 18 21 117 177 143
224 17 29 23 50 17 59 -10 16 -4 30 13 30 8 0 8 -3 -2 -9 -8 -5 -9 -11 -3 -15
10 -6 97 162 88 172 -3 3 -6 0 -6 -8 0 -10 -3 -10 -15 0 -9 7 -18 10 -22 6 -4
-3 2 -13 13 -22 10 -8 13 -12 5 -8 -9 5 -12 3 -7 -4 4 -6 0 -24 -8 -39 -8 -16
-15 -24 -16 -20 0 5 4 17 10 27 13 24 2 58 -12 38 -6 -9 -7 -5 -3 12 6 23 5
24 -8 7 -10 -12 -16 -14 -19 -6 -3 9 -9 9 -25 0 -31 -16 -42 -14 -36 8 4 17 0
18 -44 14 -61 -7 -68 -13 -15 -13 23 0 42 -4 42 -10 0 -6 -33 -10 -80 -10 -70
0 -80 2 -80 18 0 10 5 23 12 30 7 7 8 12 2 12 -6 0 -20 -22 -32 -50 -12 -27
-26 -50 -32 -50 -5 0 -10 -6 -10 -13 0 -7 -8 -20 -17 -28 -10 -9 -24 -24 -30
-35 -38 -57 -95 -137 -113 -156 -11 -12 -20 -25 -20 -30 0 -4 -6 -8 -14 -8 -8
0 -17 -8 -21 -19 -8 -27 -47 -59 -52 -43 -7 19 -33 14 -54 -11 -10 -12 -18
-17 -19 -11 0 13 -119 28 -144 18 -9 -3 -16 -13 -16 -21 0 -8 5 -11 10 -8 6 3
10 1 10 -4 0 -6 -9 -11 -20 -11 -22 0 -25 11 -11 38 5 9 16 35 24 57 8 22 24
63 35 90 11 28 29 82 41 120 13 39 26 79 31 90 23 52 34 119 18 109 -4 -3 -6
-9 -3 -14 3 -5 0 -12 -6 -16 -8 -4 -9 -3 -5 4 13 22 -10 12 -34 -13 -13 -14
-20 -25 -16 -25 5 0 3 -6 -3 -14 -9 -11 -8 -18 4 -30 9 -9 12 -16 7 -16 -5 0
-16 10 -25 23 l-15 22 -10 -25 c-7 -16 -11 -19 -11 -8 -2 41 274 254 442 342
146 76 312 135 497 174 l85 19 12 64 c24 131 36 323 30 488 -5 164 -24 331
-37 331 -4 0 -5 14 -2 30 5 34 -3 41 -11 10z m-753 -489 c-4 -17 -9 -30 -11
-27 -3 2 -2 19 2 36 9 41 17 33 9 -9z m-455 -78 c-7 -10 -14 -19 -15 -21 -1
-1 -9 0 -18 4 -9 3 -14 10 -11 15 3 4 12 6 19 3 8 -3 17 -1 21 5 3 6 9 11 12
11 3 0 -1 -8 -8 -17z m63 -15 c-9 -9 -15 -9 -24 0 -9 9 -7 12 12 12 19 0 21
-3 12 -12z m652 -903 c3 -8 1 -15 -4 -15 -6 0 -10 7 -10 15 0 8 2 15 4 15 2 0
6 -7 10 -15z m210 -112 c11 -13 16 -23 13 -23 -10 0 -37 31 -37 42 0 6 1 9 3
7 1 -2 11 -14 21 -26z m31 7 c3 -5 2 -10 -4 -10 -5 0 -13 5 -16 10 -3 6 -2 10
4 10 5 0 13 -4 16 -10z m-31 -48 c3 -5 -1 -9 -9 -9 -8 0 -12 4 -9 9 3 4 7 8 9
8 2 0 6 -4 9 -8z m-674 -202 c0 -5 -5 -10 -11 -10 -5 0 -7 5 -4 10 3 6 8 10
11 10 2 0 4 -4 4 -10z m-119 -76 c-25 -32 -26 -28 -4 22 12 28 18 34 21 22 2
-10 -6 -30 -17 -44z m-475 -699 c2 -19 0 -22 -10 -13 -7 7 -11 21 -8 31 6 23
15 14 18 -18z m-62 -40 c-4 -8 -11 -15 -16 -15 -6 0 -5 6 2 15 7 8 14 15 16
15 2 0 1 -7 -2 -15z"/>
<path d="M3266 2665 c-9 -26 -7 -32 5 -12 6 10 9 21 6 23 -2 3 -7 -2 -11 -11z"/>
<path d="M1865 2439 c-4 -6 -4 -13 -1 -16 3 -4 6 -1 6 6 0 7 5 9 12 5 7 -4 8
-3 4 4 -9 15 -13 15 -21 1z"/>
<path d="M2675 2430 c-7 -11 12 -40 25 -40 5 0 7 8 5 18 -2 9 -4 20 -4 25 -1
11 -19 9 -26 -3z m20 -10 c3 -5 1 -10 -4 -10 -6 0 -11 5 -11 10 0 6 2 10 4 10
3 0 8 -4 11 -10z"/>
<path d="M1886 2412 c-3 -5 1 -9 9 -9 8 0 12 4 9 9 -3 4 -7 8 -9 8 -2 0 -6 -4
-9 -8z"/>
<path d="M1856 2385 c4 -8 8 -15 10 -15 2 0 4 7 4 15 0 8 -4 15 -10 15 -5 0
-7 -7 -4 -15z"/>
<path d="M651 1875 c1 -19 18 -51 18 -35 0 8 -4 22 -9 30 -5 8 -9 11 -9 5z"/>
<path d="M3890 1835 c0 -5 5 -17 10 -25 5 -8 10 -10 10 -5 0 6 -5 17 -10 25
-5 8 -10 11 -10 5z"/>
<path d="M676 1800 c4 -14 10 -29 15 -34 4 -5 5 1 2 13 -3 12 -1 21 6 21 6 0
11 5 11 11 0 8 -4 8 -14 0 -11 -9 -15 -9 -20 1 -3 7 -3 2 0 -12z"/>
<path d="M3575 1790 c-3 -5 -1 -10 4 -10 6 0 11 5 11 10 0 6 -2 10 -4 10 -3 0
-8 -4 -11 -10z"/>
<path d="M3867 1777 c-3 -8 -3 -26 0 -39 4 -19 3 -20 -7 -8 -10 12 -11 11 -7
-8 4 -17 2 -21 -6 -14 -18 15 -167 27 -167 14 0 -6 -10 -13 -22 -15 -13 -2 5
-2 40 1 64 5 71 0 63 -42 -1 -5 4 -5 11 1 7 6 23 9 36 8 12 -1 22 3 22 8 0 5
6 7 14 4 19 -7 50 68 38 90 -8 13 -10 13 -15 0z"/>
<path d="M750 1730 c0 -5 5 -10 10 -10 6 0 10 -6 10 -14 0 -12 11 -13 55 -9
38 4 55 2 55 -6 0 -6 18 -11 46 -11 59 0 55 24 -4 28 -23 2 -42 7 -42 13 0 14
-78 11 -84 -3 -3 -10 -9 -8 -19 5 -16 19 -27 22 -27 7z"/>
<path d="M3715 1669 c-11 -17 1 -21 15 -4 8 9 8 15 2 15 -6 0 -14 -5 -17 -11z"/>
<path d="M1380 1285 c0 -15 26 -32 36 -23 2 3 2 13 -2 22 -8 20 -34 21 -34 1z"/>
<path d="M2995 1290 c-3 -5 -1 -10 4 -10 6 0 11 5 11 10 0 6 -2 10 -4 10 -3 0
-8 -4 -11 -10z"/>
<path d="M3067 1287 c-7 -4 20 -5 58 -1 39 3 72 8 75 11 8 8 -121 -1 -133 -10z"/>
<path d="M2525 480 c-3 -5 -1 -10 4 -10 6 0 11 5 11 10 0 6 -2 10 -4 10 -3 0
-8 -4 -11 -10z"/>
<path d="M1983 469 c9 -6 15 -14 12 -20 -4 -5 -1 -9 4 -9 6 0 11 4 11 8 0 12
-22 32 -34 32 -6 0 -3 -5 7 -11z"/>
<path d="M1958 453 c7 -3 16 -2 19 1 4 3 -2 6 -13 5 -11 0 -14 -3 -6 -6z"/>
</g>
</svg>
