<?xml version="1.0" standalone="no"?>
<!DOCTYPE svg PUBLIC "-//W3C//DTD SVG 20010904//EN"
 "http://www.w3.org/TR/2001/REC-SVG-20010904/DTD/svg10.dtd">
<svg version="1.0" xmlns="http://www.w3.org/2000/svg"
 width="210.000000pt" height="181.000000pt" viewBox="0 0 210.000000 181.000000"
 preserveAspectRatio="xMidYMid meet">

<g transform="translate(0.000000,181.000000) scale(0.100000,-0.100000)"
fill="#000000" stroke="none">
<path d="M0 905 l0 -905 1050 0 1050 0 0 905 0 905 -1050 0 -1050 0 0 -905z
m726 763 c-4 -18 -20 -46 -37 -63 l-30 -30 12 35 c23 72 32 90 46 90 12 0 14
-7 9 -32z m714 -25 c0 -8 7 -28 16 -46 l16 -32 -33 32 c-24 23 -33 42 -35 70
l-3 38 19 -24 c11 -13 20 -30 20 -38z m178 9 c6 -9 12 -25 12 -36 0 -19 -2
-18 -13 4 -16 32 -50 37 -76 11 -12 -12 -21 -18 -21 -14 0 3 -2 4 -5 1 -8 -8
22 -86 45 -119 12 -16 17 -29 12 -29 -10 0 -61 56 -63 68 -10 78 3 116 44 131
26 10 47 4 65 -17z m-1014 -4 c9 -12 16 -42 16 -65 0 -33 -7 -50 -31 -78 -41
-46 -56 -45 -24 2 47 71 26 152 -38 139 -25 -5 -28 -4 -17 9 19 23 76 19 94
-7z m316 -17 c-84 -23 -142 -49 -210 -96 -30 -21 -60 -38 -67 -38 -7 0 -10 -3
-8 -7 2 -4 -9 -20 -25 -35 -17 -16 -30 -23 -30 -17 0 7 4 12 10 12 5 0 7 6 4
14 -7 19 83 90 156 124 69 32 165 61 205 61 20 0 8 -6 -35 -18z m405 -23 c208
-81 363 -267 409 -491 23 -110 20 -207 -9 -321 -59 -235 -232 -412 -475 -487
-96 -30 -261 -32 -360 -5 -102 28 -221 93 -300 164 -3 3 1 7 9 10 10 3 10 6 1
12 -6 4 -13 19 -14 34 -2 14 -12 36 -22 49 -10 12 9 -5 44 -38 180 -174 431
-233 663 -155 101 34 168 77 255 165 128 128 188 273 188 450 -1 181 -61 322
-194 455 -86 87 -153 130 -263 171 -39 14 -43 17 -17 13 19 -4 58 -15 85 -26z
m-887 -119 c-5 -3 -5 -14 -2 -25 4 -11 -5 -4 -21 15 -26 30 -32 33 -69 28 -37
-5 -39 -4 -22 9 28 20 63 17 86 -6 l20 -20 1 28 1 27 7 -25 c4 -14 4 -28 -1
-31z m95 44 c4 -3 3 -11 -2 -17 -5 -6 -11 -27 -13 -46 -2 -24 -9 -36 -21 -38
-15 -3 -18 1 -14 27 3 16 8 35 12 40 12 21 -13 11 -29 -11 -16 -22 -16 -21 -1
9 17 37 50 55 68 36z m1126 -36 c11 -19 12 -31 4 -48 -10 -24 -10 -24 -10 4 0
16 -5 33 -10 38 -5 5 -7 -5 -5 -26 4 -35 -7 -45 -26 -22 -9 10 -17 64 -13 89
2 15 47 -10 60 -35z m33 18 c-2 -14 -6 -25 -8 -25 -2 0 -4 11 -4 25 0 14 4 25
9 25 4 0 6 -11 3 -25z m110 -2 c23 -20 23 -56 1 -74 -15 -13 -15 -12 -2 9 10
16 11 26 3 40 -13 20 -62 28 -77 13 -6 -6 -16 -11 -21 -11 -20 1 36 40 57 40
11 0 29 -7 39 -17z m-1232 -66 c0 -2 -12 -14 -27 -28 l-28 -24 24 28 c23 25
31 32 31 24z m-140 -26 c0 -6 -4 -13 -10 -16 -5 -3 -10 -30 -10 -58 0 -50 -13
-88 -25 -75 -3 3 -7 29 -7 56 -1 28 -5 49 -10 46 -4 -3 -8 -11 -8 -19 0 -8 -5
-17 -11 -20 -16 -11 20 69 38 83 20 14 43 16 43 3z m1295 -1 c32 -12 59 -71
50 -111 -10 -43 -21 -43 -17 1 2 21 0 46 -5 54 -7 12 -9 2 -10 -34 -1 -93 -33
-74 -33 21 0 30 -5 60 -12 67 -15 15 -8 15 27 2z m-1165 -24 c0 -2 -8 -10 -17
-17 -16 -13 -17 -12 -4 4 13 16 21 21 21 13z m355 -15 c84 -39 128 -115 127
-221 0 -83 -23 -143 -93 -245 -30 -44 -64 -97 -76 -120 -51 -94 -6 37 58 169
43 89 54 121 57 173 6 83 -16 141 -70 188 -68 58 -144 56 -202 -4 -38 -39 -44
-89 -17 -143 l21 -43 -25 30 c-28 34 -40 82 -30 122 8 33 76 100 107 106 52
10 105 5 143 -12z m-394 -18 c7 -10 9 -15 5 -11 -5 4 -16 2 -25 -5 -14 -10
-14 -10 -4 4 7 9 10 19 6 22 -3 4 -4 7 -1 7 3 0 12 -8 19 -17z m-195 -30 c-4
-4 -11 -1 -16 7 -16 25 -11 35 7 17 9 -9 13 -20 9 -24z m814 28 c0 -5 -19 -11
-42 -14 -24 -2 -52 -8 -63 -11 -14 -5 -24 -1 -33 14 -12 19 -10 20 63 20 41 0
75 -4 75 -9z m675 -13 c-6 -18 -4 -20 11 -13 74 31 134 -12 108 -79 -3 -9 -11
-16 -17 -16 -7 0 -7 4 1 12 19 19 14 45 -10 62 -25 18 -74 21 -83 6 -3 -5 -11
-10 -16 -10 -6 0 -7 5 -4 10 3 6 1 10 -5 10 -8 0 -8 6 0 20 14 26 23 26 15 -2z
m-1503 -25 c28 -25 21 -37 -8 -14 -29 23 -64 27 -97 10 -20 -9 -19 -8 3 11 27
24 71 22 102 -7z m582 -24 c74 -58 74 -141 -2 -305 -46 -99 -66 -166 -76 -249
-1 -17 -4 -8 -4 20 -2 72 21 168 63 263 43 99 54 166 32 208 -37 71 -97 88
-145 40 -22 -21 -27 -35 -26 -72 1 -28 -2 -40 -7 -32 -22 34 1 116 38 137 31
18 98 13 127 -10z m-707 -21 c-3 -8 -6 -5 -6 6 -1 11 2 17 5 13 3 -3 4 -12 1
-19z m661 -9 c21 -7 34 -21 41 -42 l11 -32 -26 33 c-14 17 -30 32 -35 32 -5 0
0 -9 11 -20 11 -11 20 -30 20 -42 -1 -21 -3 -20 -30 11 -23 27 -33 32 -54 27
-21 -5 -24 -3 -19 10 3 8 15 20 27 24 12 5 21 9 22 9 1 1 15 -4 32 -10z m-518
-28 c-7 -13 -7 -28 0 -46 5 -14 10 -43 10 -63 0 -32 -2 -35 -15 -21 -9 8 -19
35 -24 60 l-8 44 -11 -35 -12 -35 5 34 c6 43 30 81 51 81 11 0 12 -4 4 -19z
m103 4 c-3 -9 -8 -14 -10 -11 -3 3 -2 9 2 15 9 16 15 13 8 -4z m1396 -11 c27
-34 27 -85 0 -115 -19 -23 -20 -23 -10 -2 6 12 10 37 10 55 -1 20 -3 25 -6 13
-16 -76 -51 -105 -38 -32 4 23 8 57 8 75 1 39 9 40 36 6z m66 -84 c-10 -11
-23 -20 -28 -20 -6 0 -2 9 8 20 10 11 23 20 28 20 6 0 2 -9 -8 -20z m-1647 1
c7 -4 14 -14 15 -22 2 -8 6 -19 10 -26 5 -8 -4 -8 -28 3 -44 18 -72 11 -104
-24 l-23 -27 18 33 c20 35 48 47 90 39 24 -4 24 -4 8 14 -18 19 -9 25 14 10z
m597 -31 c17 -32 18 -74 4 -105 -7 -15 -8 -13 -3 12 3 17 1 34 -4 37 -6 3 -13
-10 -16 -29 -10 -54 -30 -57 -22 -4 14 94 18 119 22 119 2 0 10 -13 19 -30z
m-545 -5 c14 -19 14 -19 -2 -6 -10 7 -18 18 -18 24 0 6 1 8 3 6 1 -2 9 -13 17
-24z m127 -7 c-3 -7 -5 -2 -5 12 0 14 2 19 5 13 2 -7 2 -19 0 -25z m1545 5
c23 -27 28 -51 18 -78 -7 -19 -16 -25 -37 -24 -21 1 -23 3 -8 6 11 3 25 12 32
20 28 36 -35 90 -88 76 -15 -4 -20 -3 -15 5 11 19 81 15 98 -5z m-1585 -15
c-3 -8 -6 -5 -6 6 -1 11 2 17 5 13 3 -3 4 -12 1 -19z m1469 -45 c16 -21 18
-87 4 -113 -6 -11 -20 -25 -33 -31 -21 -12 -22 -11 -4 8 20 22 42 87 26 78 -5
-4 -9 -11 -9 -17 0 -14 -40 -58 -52 -58 -13 0 1 39 25 73 11 16 20 39 20 53 0
29 5 30 23 7z m-1572 -6 c-2 -7 9 -31 26 -52 16 -21 30 -49 30 -63 l0 -26 -30
29 c-16 16 -30 36 -30 44 0 9 -5 23 -11 31 -8 11 -9 5 -5 -25 3 -26 14 -48 31
-62 14 -13 22 -23 17 -23 -16 0 -52 46 -58 75 -6 33 10 85 25 85 6 0 8 -6 5
-13z m93 -44 c-3 -10 -5 -2 -5 17 0 19 2 27 5 18 2 -10 2 -26 0 -35z m40 -15
c-2 -13 -4 -3 -4 22 0 25 2 35 4 23 2 -13 2 -33 0 -45z m-266 35 c13 -16 12
-17 -3 -4 -17 13 -22 21 -14 21 2 0 10 -8 17 -17z m645 -160 c9 -46 -11 -42
-27 5 -12 36 -13 36 -20 12 -6 -22 -7 -21 -8 10 -1 20 7 47 16 60 l18 25 7
-40 c4 -22 11 -55 14 -72z m-566 71 c24 -14 24 -14 -15 -8 -47 7 -71 24 -34
24 13 -1 35 -7 49 -16z m1735 7 c-6 -4 -28 -11 -50 -14 -37 -6 -38 -5 -21 8
21 16 87 21 71 6z m-958 -137 c1 -92 6 -140 14 -151 11 -12 36 -14 148 -11
156 4 187 15 231 88 14 22 31 48 38 58 12 16 13 15 8 -3 -2 -11 -16 -59 -31
-107 l-26 -88 -239 0 c-204 0 -241 2 -254 16 -19 19 -21 31 -3 16 10 -8 13 -6
13 8 0 10 -3 17 -6 15 -3 -2 -4 29 -2 68 4 54 11 81 30 112 14 22 36 57 49 78
13 20 24 37 26 37 1 0 3 -61 4 -136z m-630 104 c-3 -8 -6 -5 -6 6 -1 11 2 17
5 13 3 -3 4 -12 1 -19z m-47 -38 c41 -41 14 -130 -39 -130 -22 0 -69 35 -59
45 3 4 16 2 27 -4 17 -9 24 -8 41 9 16 16 18 24 10 41 -11 20 -48 39 -76 39
-9 0 -29 -13 -45 -29 -16 -16 -29 -25 -29 -21 0 5 13 23 30 40 24 25 37 30 75
30 32 0 51 -6 65 -20z m97 -12 c-3 -7 -5 -2 -5 12 0 14 2 19 5 13 2 -7 2 -19
0 -25z m1507 6 c14 -15 26 -36 25 -48 0 -20 -1 -20 -9 2 -14 34 -75 57 -112
41 -15 -6 -33 -19 -39 -28 -8 -12 -8 -10 -3 9 6 23 5 24 -12 11 -10 -7 -6 -2
9 13 39 37 104 37 141 0z m-157 -66 c-3 -8 -6 -5 -6 6 -1 11 2 17 5 13 3 -3 4
-12 1 -19z m69 -24 c8 3 21 9 29 12 23 9 18 -13 -7 -30 -30 -21 -41 -20 -69 5
-13 11 -18 17 -10 14 10 -6 11 -2 6 16 l-7 24 22 -23 c12 -13 28 -21 36 -18z
m-1405 3 c-10 -9 -11 -8 -5 6 3 10 9 15 12 12 3 -3 0 -11 -7 -18z m-57 -68
c28 -22 35 -64 16 -100 -15 -28 -74 -26 -94 3 -26 37 -20 55 8 28 43 -39 89 2
48 42 -26 27 -75 27 -103 2 -22 -19 -22 -19 -10 3 24 46 90 57 135 22z m1477
-8 c16 -16 29 -35 29 -42 0 -6 -11 0 -25 15 -17 18 -34 26 -59 26 -58 0 -86
-48 -43 -74 15 -9 22 -7 37 12 22 26 30 28 30 5 0 -26 -30 -53 -60 -53 -35 0
-58 27 -55 65 3 44 3 43 33 59 43 24 80 20 113 -13z m-1417 -18 c9 -18 14 -33
12 -33 -6 0 -36 55 -36 66 0 11 5 3 24 -33z m70 -43 c-6 -5 -24 21 -24 34 0 6
6 1 14 -10 8 -10 12 -21 10 -24z m-34 -15 c7 -9 8 -15 2 -15 -5 0 -12 7 -16
15 -3 8 -4 15 -2 15 2 0 9 -7 16 -15z m54 -3 c2 -4 -5 -9 -17 -9 -17 -2 -19 0
-7 7 18 12 18 12 24 2z m1427 -16 c-14 -17 -49 -27 -56 -16 -6 10 14 27 40 32
26 6 30 2 16 -16z m-1757 8 c20 -8 21 -34 2 -34 -8 0 -24 9 -37 20 -24 19 -24
19 -2 20 12 0 28 -3 37 -6z m316 -30 c0 -8 -19 -13 -24 -6 -3 5 1 9 9 9 8 0
15 -2 15 -3z m1440 -60 c20 -20 25 -34 25 -78 0 -38 -5 -60 -19 -74 -22 -26
-69 -37 -93 -23 -16 9 -15 10 7 7 30 -4 75 17 84 39 16 41 6 83 -25 109 -58
49 -120 47 -203 -5 -28 -18 -67 -41 -86 -51 -34 -19 -34 -19 10 22 122 115
221 133 300 54z m-1568 3 c86 -60 141 -107 124 -107 -8 0 -45 21 -83 46 -37
26 -82 53 -100 60 -38 16 -97 18 -122 5 -13 -7 -18 -6 -18 5 0 7 2 12 5 9 2
-2 11 3 20 12 28 27 112 13 174 -30z m-226 -11 c-8 -14 -18 -43 -22 -65 -6
-36 -3 -43 24 -71 17 -16 27 -30 22 -30 -4 0 -20 14 -35 32 -23 27 -26 38 -21
71 6 35 31 87 43 87 3 0 -2 -11 -11 -24z m1722 -5 c15 -1 52 -37 52 -52 0 -6
-8 -2 -17 10 -33 39 -70 37 -163 -12 -47 -24 -98 -47 -115 -51 -20 -4 -10 4
30 25 33 17 84 43 113 59 28 15 60 27 70 25 9 -2 23 -4 30 -4z m-1509 -46 c33
-21 89 -46 123 -56 52 -16 55 -18 21 -13 -28 4 -43 2 -43 -5 0 -6 -10 -11 -22
-11 -19 0 -20 -2 -8 -10 13 -9 13 -10 -1 -10 -8 0 -24 6 -34 14 -17 12 -15 14
20 20 l39 8 -43 19 c-24 10 -48 16 -54 12 -5 -3 -7 -1 -4 4 9 14 -56 52 -108
64 l-40 8 46 -3 c32 -2 65 -15 108 -41z m-176 11 c-10 -13 -20 -22 -22 -20 -4
4 29 44 36 44 2 0 -4 -11 -14 -24z m382 14 c3 -5 2 -10 -4 -10 -5 0 -13 5 -16
10 -3 6 -2 10 4 10 5 0 13 -4 16 -10z m-330 -37 c-11 -7 -22 -13 -27 -13 -4 0
-8 -8 -9 -17 0 -12 -2 -13 -6 -5 -3 7 2 21 11 31 9 10 13 20 10 24 -3 3 4 3
16 0 22 -6 22 -7 5 -20z m1653 -11 c2 -19 -1 -32 -8 -32 -6 0 -8 4 -5 10 3 5
-3 15 -15 22 -23 15 -27 33 -4 24 9 -4 13 -2 8 5 -4 7 -1 10 7 7 8 -2 15 -19
17 -36z m-1557 1 c-10 -4 -8 -9 10 -19 33 -18 2 -18 -41 0 -35 14 -26 24 20
24 14 0 19 -2 11 -5z m1474 1 c13 -5 7 -10 -22 -20 -49 -17 -76 -18 -45 -1 12
7 19 16 16 20 -9 9 29 9 51 1z m115 -23 c0 -12 -29 -41 -40 -41 -5 0 1 11 13
24 26 28 27 29 27 17z m-230 -31 l25 -7 -24 -10 c-19 -7 -29 -6 -43 6 -10 8
-18 17 -18 18 0 5 34 1 60 -7z m-960 -80 c132 -56 243 -75 288 -51 26 14 71
-5 96 -41 20 -28 21 -100 1 -137 -27 -53 -97 -61 -135 -16 -11 14 -7 13 20 -4
19 -11 38 -21 42 -21 4 0 23 14 43 31 28 25 35 38 35 69 0 39 -26 82 -62 101
-16 8 -27 6 -59 -15 -41 -27 -50 -28 -24 -2 14 14 9 15 -47 10 -69 -7 -115 6
-288 80 -55 23 -99 36 -125 35 -55 -1 -64 2 -35 12 50 17 126 2 250 -51z m900
45 c28 -14 77 -81 67 -91 -3 -3 -8 4 -12 15 -3 11 -22 30 -42 43 -58 35 -121
29 -248 -26 -58 -25 -120 -48 -138 -51 -63 -10 -106 -12 -101 -4 3 5 16 9 30
9 25 0 71 18 219 84 89 40 173 48 225 21z m-1228 -64 c-9 -16 -18 -28 -21 -26
-4 5 27 55 34 55 2 0 -4 -13 -13 -29z m1248 -18 l25 -26 -29 21 c-41 31 -74
28 -183 -19 -78 -33 -111 -41 -172 -44 -42 -2 -65 -2 -51 1 14 2 52 9 85 15
32 6 82 22 109 36 117 59 170 63 216 16z m-1025 -8 c94 -41 186 -60 258 -52
35 4 44 3 27 -3 -21 -7 -22 -8 -5 -10 l20 -1 -20 -9 c-24 -10 -167 -11 -210
-1 -16 4 22 6 85 5 l115 -3 -85 9 c-98 10 -125 17 -200 55 -30 15 -77 31 -105
35 l-50 8 45 1 c31 0 69 -10 125 -34z m-175 22 c0 -2 -10 -12 -22 -23 l-23
-19 19 23 c18 21 26 27 26 19z m72 -24 c10 -9 18 -26 18 -39 0 -38 -48 -71
-65 -44 -3 6 1 7 10 4 8 -4 22 -1 30 6 39 32 -11 93 -57 70 -22 -11 -22 -10
-4 4 25 20 45 20 68 -1z m1114 -5 l19 -21 -28 18 c-23 15 -32 16 -55 6 -25
-11 -26 -10 -8 4 27 21 50 19 72 -7z m-572 -69 c15 -36 11 -62 -11 -81 -32
-26 -57 50 -31 92 18 28 27 25 42 -11z m391 10 c-27 -5 -95 -11 -150 -13
l-100 -5 99 9 c54 5 101 12 104 15 3 3 26 4 51 4 l46 -2 -50 -8z m155 -14 c-7
-8 -17 -15 -23 -15 -6 0 -2 7 9 15 25 19 30 19 14 0z m-653 -17 c-3 -8 -6 -5
-6 6 -1 11 2 17 5 13 3 -3 4 -12 1 -19z"/>
<path d="M1723 675 c-3 -9 -3 -18 -1 -21 3 -3 8 4 11 16 6 23 -1 27 -10 5z"/>
<path d="M1720 631 c0 -6 4 -13 10 -16 6 -3 7 1 4 9 -7 18 -14 21 -14 7z"/>
<path d="M1045 177 c-8 -30 -1 -57 14 -57 19 0 25 51 8 67 -14 15 -16 14 -22
-10z"/>
</g>
</svg>
